<?xml version="1.0" encoding="utf-8"?>
<!-- Generator: Adobe Illustrator 15.0.0, SVG Export Plug-In . SVG Version: 6.00 Build 0)  -->
<svg version="1.2" baseProfile="tiny" id="Layer_1" xmlns="http://www.w3.org/2000/svg" xmlns:xlink="http://www.w3.org/1999/xlink"
	 x="0px" y="0px" viewBox="0 0 250 250" overflow="inherit" xml:space="preserve" width="250" height="250">
<path fill="#222222" d="M125,6.25C59.417,6.25,6.25,59.417,6.25,125c0,65.584,53.167,118.75,118.75,118.75
	c65.584,0,118.75-53.166,118.75-118.75C243.75,59.417,190.584,6.25,125,6.25z M125,200c-41.421,0-75-33.579-75-75s33.579-75,75-75
	s75,33.579,75,75S166.421,200,125,200z"/>
<g>
	<path fill="#FFFFFF" d="M42.19,84.267c0.104,0.054,0.238,0.087,0.376-0.067l0.545-0.678l1.007,0.529l-1.829,3.482l-1.007-0.529
		l0.256-0.848c0.049-0.201-0.054-0.293-0.158-0.348l-7.023-3.688c-0.104-0.055-0.238-0.087-0.375,0.067l-0.553,0.692l-1.007-0.529
		l3.144-5.986c1.198-2.282,2.329-2.671,4.374-1.597c0.845,0.444,1.373,0.986,1.614,1.642c0.227,0.611,0.116,1.29-0.12,1.884
		c-0.079,0.223-0.143,0.417,0.094,0.541c0.118,0.062,0.224,0.042,0.366,0.022l3.196-0.363c0.36-0.038,0.498-0.192,0.743-0.479
		l0.437-0.508l1.007,0.529l-1.144,2.178l-3.758,0.389l-1.526-0.802l-1.549,2.949L42.19,84.267z M37.84,76.065
		c-0.347,0.12-0.721,0.509-1.243,1.502l-1.548,2.949l2.963,1.556l1.549-2.948c0.521-0.993,0.614-1.53,0.532-1.876
		c-0.127-0.407-0.504-0.624-0.979-0.873C38.655,76.134,38.247,75.938,37.84,76.065z"/>
	<path fill="#FFFFFF" d="M48.142,76.759l-0.933-0.652l0.361-0.809c0.074-0.193-0.017-0.297-0.113-0.364l-6.502-4.542
		c-0.096-0.067-0.225-0.117-0.381,0.02l-0.635,0.617l-0.933-0.651l5.146-7.367l1.221,0.853l-3.517,5.034l2.634,1.84l3.402-4.87
		l1.193,0.834l-3.402,4.87l2.867,2.002l3.517-5.034l1.221,0.853L48.142,76.759z"/>
	<path fill="#FFFFFF" d="M50.308,58.104l6.028,5.31c0.088,0.077,0.21,0.141,0.381,0.023l0.701-0.542l0.854,0.752l-2.611,2.964
		l-0.854-0.752l0.45-0.764c0.095-0.184,0.017-0.297-0.071-0.375l-6.028-5.31l-2.755,3.127l-1.13-0.996l6.66-7.56l1.13,0.996
		L50.308,58.104z"/>
	<path fill="#FFFFFF" d="M61.934,57.653c0.078,0.087,0.192,0.166,0.375,0.069l0.749-0.442l0.757,0.85l-2.937,2.614l-0.756-0.85
		l0.539-0.704c0.117-0.171,0.053-0.293-0.025-0.381l-5.272-5.923c-0.078-0.087-0.192-0.165-0.375-0.069l-0.761,0.454l-0.756-0.85
		l5.049-4.494c1.924-1.713,3.119-1.679,4.654,0.045c0.634,0.712,0.938,1.405,0.932,2.104c-0.002,0.651-0.345,1.248-0.775,1.72
		c-0.153,0.181-0.28,0.339-0.103,0.54c0.089,0.1,0.195,0.118,0.335,0.149l3.119,0.786c0.35,0.092,0.533-0.004,0.864-0.187
		l0.587-0.321l0.757,0.85l-1.837,1.635l-3.653-0.959l-1.146-1.287l-2.487,2.213L61.934,57.653z M60.751,48.448
		c-0.367-0.01-0.854,0.223-1.691,0.968l-2.487,2.213l2.225,2.5l2.487-2.214c0.837-0.745,1.113-1.215,1.158-1.568
		c0.024-0.425-0.252-0.761-0.608-1.161C61.489,48.799,61.176,48.473,60.751,48.448z"/>
	<path fill="#FFFFFF" d="M74.245,50.049c-3.681,2.5-4.783,1.772-7.283-1.909c-2.688-3.958-2.638-5.105,0.877-7.492
		c3.695-2.51,4.746-1.767,7.274,1.956C77.642,46.327,77.913,47.559,74.245,50.049z M68.658,41.852
		c-2.339,1.588-2.367,2.113-0.215,5.282c2.04,3.003,2.553,3.342,4.975,1.697c2.478-1.683,2.236-2.247,0.215-5.222
		C71.668,40.717,71.218,40.113,68.658,41.852z"/>
	<path fill="#FFFFFF" d="M95.429,28.593c-0.238,0.169-0.291,0.262-0.268,0.542l1.223,9.649l-3.147,1.276l-5.634-8.15
		c-0.094-0.142-0.222-0.235-0.408-0.159c-0.17,0.069-0.198,0.225-0.172,0.376l1.687,9.769l-3.163,1.282l-5.828-7.782
		c-0.163-0.223-0.281-0.247-0.554-0.208l-0.829,0.138l-0.434-1.07l3.689-1.497l0.428,1.055l-0.61,0.41
		c-0.198,0.134-0.126,0.268-0.004,0.435l4.541,6.3c0.209,0.294,0.387,0.42,0.697,0.295c0.31-0.126,0.35-0.34,0.295-0.697
		l-1.703-9.274l3.039-1.232l5.377,7.785c0.194,0.3,0.372,0.427,0.682,0.301c0.326-0.132,0.35-0.34,0.295-0.697l-1.192-7.658
		c-0.044-0.199-0.101-0.338-0.337-0.297l-0.723,0.131l-0.428-1.054l3.705-1.502l0.434,1.07L95.429,28.593z"/>
	<path fill="#FFFFFF" d="M105.769,36.54c-4.351,0.942-5.101-0.146-6.042-4.497c-1.013-4.678-0.537-5.723,3.618-6.622
		c4.368-0.945,5.064,0.137,6.017,4.537C110.313,34.358,110.103,35.602,105.769,36.54z M103.653,26.844
		c-2.764,0.599-2.987,1.075-2.176,4.82c0.769,3.55,1.118,4.056,3.98,3.437c2.928-0.633,2.915-1.247,2.154-4.764
		C106.871,26.918,106.679,26.189,103.653,26.844z"/>
	<path fill="#FFFFFF" d="M114.928,33.281c0.009,0.117,0.054,0.248,0.258,0.281l0.864,0.097l0.094,1.134l-3.919,0.323l-0.093-1.134
		l0.854-0.238c0.196-0.067,0.218-0.203,0.208-0.32l-0.651-7.905c-0.009-0.117-0.054-0.247-0.258-0.281l-0.881-0.095l-0.093-1.134
		l6.738-0.555c2.568-0.211,3.503,0.534,3.692,2.836c0.078,0.95-0.096,1.687-0.521,2.242c-0.394,0.52-1.026,0.79-1.655,0.909
		c-0.23,0.053-0.428,0.103-0.406,0.369c0.011,0.133,0.085,0.211,0.178,0.321l2.02,2.503c0.225,0.284,0.429,0.317,0.803,0.371
		l0.663,0.097l0.093,1.134l-2.452,0.202l-2.343-2.964l-0.142-1.718l-3.319,0.273L114.928,33.281z M119.519,25.212
		c-0.287-0.228-0.817-0.336-1.934-0.244l-3.319,0.273l0.274,3.335l3.319-0.273c1.117-0.092,1.621-0.301,1.868-0.557
		c0.275-0.325,0.256-0.76,0.212-1.294C119.898,25.937,119.844,25.488,119.519,25.212z"/>
	<path fill="#FFFFFF" d="M124.508,34.297l0.041-1.137l0.875-0.136c0.203-0.043,0.241-0.176,0.245-0.293l0.282-7.927
		c0.004-0.117-0.024-0.252-0.223-0.31l-0.864-0.198l0.041-1.137l3.929,0.14l-0.039,1.137l-0.859,0.137
		c-0.203,0.043-0.24,0.176-0.245,0.293l-0.286,8.027l5.553,0.197l-0.054,1.505L124.508,34.297z"/>
	<path fill="#FFFFFF" d="M140.184,35.639l-6.246-0.998l0.18-1.124l0.885-0.028c0.207-0.018,0.261-0.145,0.279-0.26l1.251-7.833
		c0.019-0.116,0.007-0.253-0.184-0.334l-0.833-0.303l0.18-1.124l6.246,0.998c4.43,0.708,4.379,3.038,3.867,6.244
		C145.296,34.083,144.612,36.346,140.184,35.639z M141.676,26.082l-3.404-0.544l-1.293,8.098l3.404,0.544
		c2.975,0.475,3.262-1.106,3.654-3.568C144.434,28.132,144.65,26.557,141.676,26.082z"/>
	<path fill="#FFFFFF" d="M156.024,39.82l-5.958-2.111l0.379-1.072l0.876,0.133c0.206,0.02,0.282-0.095,0.321-0.206l2.646-7.471
		c0.039-0.11,0.053-0.248-0.12-0.362l-0.764-0.448l0.38-1.072l5.958,2.111c4.225,1.497,3.754,3.778,2.67,6.836
		C161.33,39.217,160.248,41.317,156.024,39.82z M159.221,30.699l-3.247-1.15l-2.736,7.724l3.247,1.15
		c2.837,1.005,3.404-0.497,4.236-2.846C161.559,33.212,162.058,31.704,159.221,30.699z"/>
	<path fill="#FFFFFF" d="M162.119,42.186l0.516-1.014l0.852,0.245c0.201,0.046,0.292-0.058,0.345-0.162l3.595-7.066
		c0.053-0.104,0.084-0.239-0.072-0.375l-0.699-0.543l0.516-1.014l8.006,4.072l-0.676,1.327l-5.471-2.783l-1.456,2.862l5.292,2.692
		l-0.659,1.297l-5.293-2.692l-1.585,3.116l5.472,2.783l-0.675,1.327L162.119,42.186z"/>
	<path fill="#FFFFFF" d="M178.767,50.585l0.572,0.228c0.144,0.057,0.25,0.109,0.335-0.015c0.047-0.069,0.061-0.12,0.095-0.259
		l0.358-1.537l-4.797-3.267l-1.345,0.905c-0.107,0.069-0.149,0.101-0.188,0.156c-0.085,0.124-0.007,0.218,0.112,0.339l0.418,0.426
		l-0.64,0.94l-3.083-2.1l0.641-0.94l0.729,0.295c0.235,0.1,0.371,0.05,0.562-0.083l7.119-4.541c0.183-0.119,0.226-0.271,0.064-0.421
		l-0.647-0.624l0.649-0.954l3.705,2.523l-2.209,9.929c-0.059,0.324,0.005,0.408,0.217,0.633l0.495,0.52l-0.64,0.94l-3.166-2.156
		L178.767,50.585z M181.621,42.412c0.059-0.264,0.092-0.403-0.115-0.544s-0.324-0.059-0.549,0.092l-4.398,2.954l3.898,2.655
		L181.621,42.412z"/>
	<path fill="#FFFFFF" d="M181.768,54.253l0.749-0.856l0.765,0.447c0.185,0.095,0.298,0.016,0.375-0.072l5.222-5.967
		c0.077-0.088,0.141-0.211,0.022-0.381l-0.545-0.699l0.749-0.856l2.959,2.589l-0.75,0.856l-0.752-0.436
		c-0.184-0.094-0.297-0.016-0.374,0.072l-5.288,6.042l4.179,3.658l-0.991,1.133L181.768,54.253z"/>
	<path fill="#FFFFFF" d="M188.854,60.546l0.839-0.769l0.711,0.528c0.173,0.114,0.294,0.048,0.38-0.031l5.844-5.36
		c0.087-0.079,0.163-0.194,0.064-0.376l-0.465-0.754l0.838-0.769l6.072,6.621l-1.098,1.006l-4.149-4.525l-2.367,2.171l4.014,4.377
		l-1.072,0.984l-4.014-4.377l-2.577,2.363l4.149,4.524l-1.098,1.006L188.854,60.546z"/>
	<path fill="#FFFFFF" d="M198.881,69.734c-0.096,0.068-0.186,0.172-0.11,0.365l0.357,0.792l-0.928,0.658l-2.273-3.206l0.928-0.658
		l0.64,0.612c0.156,0.135,0.285,0.085,0.381,0.017l6.466-4.585c0.096-0.068,0.186-0.172,0.11-0.365l-0.367-0.806l0.928-0.658
		l3.908,5.511c1.49,2.101,1.325,3.284-0.558,4.619c-0.777,0.551-1.5,0.776-2.193,0.694c-0.647-0.074-1.202-0.48-1.624-0.96
		c-0.163-0.172-0.306-0.316-0.524-0.162c-0.109,0.078-0.139,0.181-0.186,0.316l-1.124,3.012c-0.13,0.337-0.055,0.53,0.09,0.879
		l0.255,0.619l-0.928,0.658l-1.422-2.005l1.355-3.524l1.404-0.996l-1.925-2.715L198.881,69.734z M208.156,69.573
		c0.05-0.363-0.127-0.874-0.775-1.788l-1.925-2.714l-2.729,1.935l1.926,2.715c0.647,0.914,1.084,1.24,1.43,1.323
		c0.42,0.071,0.784-0.167,1.221-0.476C207.727,70.268,208.085,69.993,208.156,69.573z"/>
	<path fill="#FFFFFF" d="M203.277,78.455l1.394-0.517c0,0,0.648,2.101,1.469,3.635c0.607,1.136,1.317,2.464,2.822,1.659
		c1.535-0.82,1.031-1.443,0.274-3.106c-1.035-2.292-2.026-4.039,0.645-5.467c2.302-1.23,3.576-0.337,4.973,2.274
		c0.978,1.83,1.484,3.665,1.484,3.665l-1.394,0.48c0,0-0.584-1.908-1.271-3.192c-0.615-1.151-1.313-2.599-2.789-1.81
		c-1.461,0.781-0.851,1.745-0.184,3.134c1.049,2.209,2.085,3.97-0.675,5.445c-2.671,1.428-3.874,0.136-5.12-2.196
		C203.81,80.409,203.277,78.455,203.277,78.455z"/>
</g>
<g>
	<path fill="#FFFFFF" d="M47.485,176.708c-0.199-0.203-0.317-0.233-0.608-0.183L36.8,178.484l-1.591-2.708l6.632-7.82
		c0.186-0.229,0.225-0.333,0.136-0.62l-0.256-0.811l1.026-0.604l2.063,3.511l-1.026,0.604l-0.478-0.54
		c-0.149-0.152-0.286-0.112-0.409,0.021l-5.452,6.186c-0.251,0.288-0.371,0.459-0.196,0.756c0.175,0.298,0.382,0.276,0.756,0.196
		l8.022-1.812c0.175-0.043,0.277-0.143,0.216-0.348l-0.239-0.68l1.026-0.604l2.055,3.496l-1.026,0.604L47.485,176.708z"/>
	<path fill="#FFFFFF" d="M40.541,184.225l0.946-0.693l0.669,0.622c0.164,0.137,0.296,0.083,0.394,0.011l6.596-4.831
		c0.097-0.071,0.188-0.181,0.108-0.378l-0.391-0.826l0.946-0.692l2.396,3.27l-0.946,0.693l-0.659-0.607
		c-0.164-0.137-0.296-0.083-0.393-0.012l-6.596,4.831c-0.098,0.072-0.188,0.182-0.108,0.379l0.381,0.812l-0.946,0.693
		L40.541,184.225z"/>
	<path fill="#FFFFFF" d="M51.068,195.259l0.519,0.369c0.129,0.092,0.223,0.17,0.338,0.066c0.064-0.059,0.091-0.105,0.159-0.236
		l0.735-1.452l-4.008-4.448l-1.569,0.578c-0.124,0.043-0.174,0.064-0.226,0.11c-0.115,0.104-0.06,0.217,0.03,0.368l0.314,0.53
		l-0.872,0.785l-2.576-2.858l0.872-0.785l0.66,0.474c0.211,0.158,0.359,0.141,0.583,0.055l8.246-2.809
		c0.212-0.074,0.292-0.217,0.168-0.407l-0.497-0.783l0.885-0.797l3.096,3.436l-4.643,9.41c-0.138,0.311-0.095,0.41,0.062,0.688
		l0.37,0.642l-0.872,0.786l-2.645-2.936L51.068,195.259z M55.929,187.766c0.123-0.25,0.191-0.381,0.018-0.573
		s-0.311-0.139-0.572-0.042l-5.131,1.884l3.257,3.614L55.929,187.766z"/>
	<path fill="#FFFFFF" d="M64.867,195.959c-0.189-0.099-0.307-0.019-0.387,0.071l-4.722,5.312c-1.616,1.817-2.816,1.351-4.247,0.079
		c-0.916-0.813-1.685-1.844-1.685-1.844l1.033-0.929c0,0,0.633,0.794,1.381,1.459c1.096,0.974,1.501,0.803,2.464-0.28l4.435-4.989
		c0.081-0.091,0.159-0.205,0.039-0.381l-0.556-0.726l0.779-0.877l3.03,2.693l-0.779,0.877L64.867,195.959z"/>
	<path fill="#FFFFFF" d="M60.96,205.962l0.688-0.95l0.828,0.386c0.198,0.08,0.307-0.012,0.377-0.109l4.795-6.625
		c0.071-0.099,0.124-0.23-0.014-0.394l-0.625-0.666l0.688-0.95l7.505,5.433l-0.9,1.244l-5.129-3.713l-1.942,2.684l4.962,3.591
		l-0.88,1.217l-4.962-3.592l-2.114,2.921l5.13,3.713l-0.9,1.244L60.96,205.962z"/>
	<path fill="#FFFFFF" d="M74.224,212.906c-0.058,0.105-0.094,0.243,0.063,0.388l0.689,0.573l-0.562,1.029l-3.557-1.943l0.562-1.029
		l0.87,0.278c0.207,0.054,0.303-0.051,0.361-0.156l3.92-7.175c0.058-0.106,0.094-0.244-0.063-0.389l-0.704-0.581l0.562-1.029
		l6.115,3.341c2.331,1.274,2.713,2.445,1.572,4.534c-0.471,0.863-1.039,1.398-1.719,1.636c-0.633,0.225-1.331,0.099-1.939-0.155
		c-0.229-0.086-0.427-0.154-0.559,0.088c-0.066,0.121-0.047,0.229-0.029,0.377l0.32,3.3c0.033,0.372,0.189,0.517,0.481,0.774
		l0.516,0.458l-0.562,1.029l-2.225-1.215l-0.337-3.88l0.852-1.56l-3.012-1.646L74.224,212.906z M82.75,208.562
		c-0.118-0.359-0.513-0.752-1.527-1.306l-3.012-1.646l-1.654,3.027l3.012,1.646c1.014,0.554,1.566,0.659,1.924,0.579
		c0.421-0.123,0.651-0.509,0.916-0.993C82.665,209.4,82.873,208.983,82.75,208.562z"/>
	<path fill="#FFFFFF" d="M87.898,221.381c-4.282-1.651-4.312-3.013-2.66-7.295c1.776-4.604,2.778-5.235,6.867-3.657
		c4.298,1.658,4.286,2.984,2.615,7.314C93.05,222.074,92.165,223.027,87.898,221.381z M91.565,211.829
		c-2.721-1.05-3.182-0.766-4.604,2.921c-1.348,3.493-1.333,4.128,1.484,5.215c2.881,1.111,3.218,0.575,4.553-2.886
		C94.296,213.715,94.543,212.978,91.565,211.829z"/>
	<path fill="#FFFFFF" d="M95.804,223.671l0.569-1.423c0,0,2.055,0.958,3.795,1.393c1.289,0.322,2.795,0.698,3.222-1.009
		c0.435-1.741-0.39-1.787-2.185-2.36c-2.469-0.794-4.49-1.245-3.733-4.275c0.652-2.611,2.217-2.967,5.18-2.228
		c2.075,0.519,3.829,1.401,3.829,1.401l-0.598,1.397c0,0-1.862-0.874-3.319-1.237c-1.306-0.326-2.896-0.795-3.314,0.879
		c-0.414,1.657,0.746,1.858,2.269,2.31c2.415,0.728,4.478,1.154,3.696,4.284c-0.757,3.029-2.577,3.056-5.222,2.395
		C97.667,224.616,95.804,223.671,95.804,223.671z"/>
	<path fill="#FFFFFF" d="M117.311,217.881l-0.754,8.247c-0.011,0.12,0.011,0.261,0.212,0.331l0.877,0.254l-0.106,1.168l-4.055-0.37
		l0.107-1.169l0.909-0.09c0.211-0.033,0.258-0.167,0.269-0.287l0.754-8.247l-4.278-0.392l0.142-1.546l10.343,0.945l-0.141,1.547
		L117.311,217.881z"/>
	<path fill="#FFFFFF" d="M122.579,228.194l-0.023-1.174l0.894-0.189c0.206-0.056,0.238-0.194,0.236-0.315l-0.159-8.181
		c-0.002-0.12-0.04-0.258-0.248-0.306l-0.901-0.155l-0.023-1.173l9.268-0.181l0.029,1.536l-6.333,0.123l0.064,3.313l6.126-0.119
		l0.029,1.501l-6.126,0.119l0.07,3.607l6.334-0.123l0.029,1.535L122.579,228.194z"/>
	<path fill="#FFFFFF" d="M147.641,215.332l-0.856,0.317c-0.195,0.085-0.206,0.227-0.187,0.346l1.345,8.064
		c0.021,0.119,0.077,0.25,0.29,0.267l0.912,0.022l0.193,1.157l-4.016,0.67l-0.192-1.157l0.856-0.317
		c0.195-0.086,0.207-0.228,0.188-0.347l-1.323-7.928c-0.046-0.272-0.128-0.451-0.435-0.4c-0.271,0.046-0.309,0.244-0.377,0.466
		l-1.529,6.235l-2.229,0.372l-3.551-5.458c-0.113-0.156-0.224-0.295-0.445-0.258c-0.323,0.054-0.326,0.246-0.28,0.519l1.322,7.929
		c0.02,0.119,0.076,0.249,0.289,0.267l0.896,0.025l0.193,1.156l-3.846,0.642l-0.193-1.157l0.856-0.317
		c0.196-0.085,0.207-0.227,0.188-0.346l-1.345-8.064c-0.021-0.119-0.077-0.25-0.29-0.267l-0.913-0.022l-0.193-1.157l4.628-0.771
		l3.372,5.435c0.043,0.046,0.088,0.108,0.19,0.091c0.085-0.014,0.125-0.091,0.134-0.145l1.391-6.229l4.764-0.795L147.641,215.332z"
		/>
	<path fill="#FFFFFF" d="M158.134,218.546l-0.901,0.298c-0.688,0.228-1.257,0.379-1.257,0.379l-1.368-0.401
		c-0.181-0.05-0.322-0.094-0.502-0.034c-0.361,0.119-0.307,0.338-0.231,0.567l0.895,2.704c0.037,0.114,0.13,0.229,0.343,0.213
		l0.89-0.112l0.369,1.114l-3.852,1.273l-0.368-1.114l0.798-0.445c0.181-0.114,0.17-0.257,0.132-0.371l-2.567-7.768
		c-0.038-0.115-0.114-0.235-0.327-0.22l-0.906,0.118l-0.368-1.114l6.817-2.254c2.098-0.693,3.559,0.097,4.289,2.309
		C160.457,215.016,161.28,217.506,158.134,218.546z M155.484,213.06l-3.311,1.094l1.37,4.146c0.929-0.106,2.157-0.513,3.042-0.806
		c1.705-0.563,2.437-0.933,1.738-3.047C157.739,212.678,156.86,212.604,155.484,213.06z"/>
	<path fill="#FFFFFF" d="M169.787,218.052c-4.136,1.993-5.149,1.083-7.143-3.053c-2.143-4.447-1.917-5.609,2.032-7.513
		c4.151-2,5.11-1.083,7.126,3.1S173.907,216.066,169.787,218.052z M165.329,208.839c-2.628,1.267-2.736,1.798-1.021,5.358
		c1.626,3.374,2.098,3.798,4.819,2.486c2.783-1.341,2.622-1.953,1.012-5.296C168.573,208.138,168.205,207.453,165.329,208.839z"/>
	<path fill="#FFFFFF" d="M178.515,211.263c0.066,0.101,0.171,0.197,0.372,0.127l0.83-0.339l0.644,0.98l-3.389,2.224l-0.644-0.98
		l0.655-0.636c0.145-0.157,0.098-0.292,0.032-0.393l-4.484-6.835c-0.066-0.101-0.171-0.197-0.372-0.127l-0.845,0.348l-0.644-0.98
		l5.825-3.822c2.221-1.457,3.435-1.242,4.74,0.748c0.539,0.822,0.744,1.574,0.634,2.286c-0.101,0.664-0.54,1.221-1.051,1.638
		c-0.183,0.161-0.337,0.304-0.186,0.534c0.076,0.115,0.181,0.149,0.319,0.203l3.062,1.271c0.343,0.146,0.545,0.075,0.909-0.061
		l0.647-0.239l0.644,0.98l-2.12,1.391l-3.581-1.528l-0.975-1.484l-2.869,1.882L178.515,211.263z M178.695,201.697
		c-0.373-0.065-0.905,0.099-1.871,0.732l-2.869,1.883l1.892,2.884l2.87-1.883c0.966-0.634,1.318-1.071,1.416-1.425
		c0.09-0.43-0.142-0.814-0.444-1.275C179.395,202.166,179.125,201.786,178.695,201.697z"/>
	<path fill="#FFFFFF" d="M194.055,200.049l0.377-0.513c0.094-0.128,0.174-0.221,0.071-0.338c-0.057-0.065-0.104-0.093-0.233-0.163
		l-1.441-0.758l-4.511,3.939l0.554,1.579c0.04,0.125,0.062,0.175,0.106,0.228c0.103,0.116,0.216,0.063,0.369-0.024l0.534-0.307
		l0.772,0.885l-2.899,2.531l-0.771-0.884l0.484-0.652c0.16-0.209,0.146-0.357,0.063-0.583l-2.681-8.291
		c-0.071-0.213-0.212-0.296-0.404-0.175l-0.791,0.485l-0.783-0.897l3.484-3.042l9.339,4.791c0.309,0.143,0.409,0.101,0.688-0.052
		l0.648-0.359l0.772,0.884l-2.978,2.6L194.055,200.049z M186.636,195.069c-0.248-0.127-0.378-0.196-0.573-0.026
		c-0.194,0.17-0.143,0.309-0.051,0.571l1.804,5.162l3.666-3.201L186.636,195.069z"/>
	<path fill="#FFFFFF" d="M199.081,196.849l-0.873-0.784l0.472-0.783c0.101-0.188,0.021-0.307-0.069-0.387l-6.083-5.468
		c-0.09-0.081-0.215-0.147-0.392-0.028l-0.729,0.552l-0.873-0.784l2.711-3.016l0.873,0.784l-0.46,0.77
		c-0.101,0.188-0.021,0.307,0.069,0.388l6.159,5.537l3.83-4.261l1.155,1.038L199.081,196.849z"/>
	<path fill="#FFFFFF" d="M206.249,188.673l-0.953-0.684l0.382-0.83c0.079-0.198-0.013-0.307-0.111-0.377l-6.646-4.767
		c-0.099-0.07-0.23-0.123-0.394,0.016l-0.663,0.628l-0.953-0.684l5.399-7.53l1.248,0.896l-3.69,5.146l2.692,1.931l3.569-4.979
		l1.221,0.875l-3.57,4.978l2.931,2.102l3.69-5.146l1.248,0.895L206.249,188.673z"/>
	<path fill="#FFFFFF" d="M212.904,178.462l-1.228-0.916c0,0,1.454-1.738,2.322-3.308c0.643-1.162,1.394-2.521-0.146-3.371
		c-1.569-0.868-1.826-0.084-2.842,1.503c-1.402,2.18-2.358,4.016-5.09,2.505c-2.354-1.302-2.296-2.905-0.818-5.576
		c1.035-1.871,2.339-3.338,2.339-3.338l1.196,0.938c0,0-1.324,1.574-2.05,2.887c-0.651,1.177-1.513,2.593-0.004,3.427
		c1.494,0.826,1.986-0.241,2.814-1.597c1.324-2.145,2.267-4.027,5.089-2.467c2.731,1.511,2.288,3.275,0.969,5.66
		C214.297,176.906,212.904,178.462,212.904,178.462z"/>
</g>
<path fill="#222222" d="M125,1.875c67.892,0,123.125,55.233,123.125,123.125S192.892,248.125,125,248.125S1.875,192.892,1.875,125
	S57.108,1.875,125,1.875 M125,0C55.964,0,0,55.964,0,125c0,69.035,55.964,125,125,125c69.035,0,125-55.965,125-125
	C250,55.964,194.035,0,125,0L125,0z"/>
<path fill="#222222" d="M125,58.125c36.875,0,66.875,30,66.875,66.875s-30,66.875-66.875,66.875s-66.875-30-66.875-66.875
	S88.125,58.125,125,58.125 M125,56.25c-37.969,0-68.75,30.781-68.75,68.75s30.781,68.75,68.75,68.75s68.75-30.781,68.75-68.75
	S162.969,56.25,125,56.25L125,56.25z"/>
<g>
	<path d="M111.104,76.249h-3.869v-0.517l0.405-0.079c0.135-0.022,0.158-0.124,0.158-0.202v-5.893c0-0.079-0.022-0.18-0.158-0.202
		l-0.405-0.079v-0.518h3.869c2.812,0,3.025,1.451,3.025,3.734C114.129,74.776,113.916,76.249,111.104,76.249z M111.048,69.412
		h-2.485v6.185h2.485c2.283,0,2.294-1.214,2.294-3.092C113.342,70.615,113.331,69.412,111.048,69.412z"/>
	<path d="M115.526,76.249v-0.517l0.405-0.079c0.135-0.022,0.158-0.124,0.158-0.202v-5.893c0-0.079-0.022-0.18-0.158-0.202
		l-0.405-0.079v-0.518h5.454v0.652h-4.127v2.676h4.026v0.641h-4.026v2.868h4.127v0.652H115.526z"/>
	<path d="M125.065,76.328c-1.35,0-2.688-0.27-2.688-0.27l0.079-0.652c0,0,1.417,0.258,2.598,0.258c1.473,0,1.946-0.314,1.946-1.428
		c0-1.271-0.36-1.327-1.935-1.406c-1.777-0.09-2.856-0.079-2.856-1.99c0-0.765,0.146-1.282,0.483-1.608
		c0.427-0.416,1.068-0.551,2.272-0.551c0.821,0,1.63,0.09,2.428,0.248l-0.09,0.618c0,0-1.169-0.213-2.305-0.213
		c-1.788,0-2.002,0.483-2.002,1.518c0,1.136,0.641,1.08,1.923,1.169c1.665,0.113,2.879-0.011,2.879,2.002
		C127.798,75.777,127.236,76.328,125.065,76.328z"/>
	<path d="M133.053,76.249h-3.869v-0.517l0.405-0.079c0.135-0.022,0.157-0.124,0.157-0.202v-5.893c0-0.079-0.022-0.18-0.157-0.202
		l-0.405-0.079v-0.518h3.869c2.812,0,3.025,1.451,3.025,3.734C136.078,74.776,135.864,76.249,133.053,76.249z M132.996,69.412
		h-2.484v6.185h2.484c2.283,0,2.295-1.214,2.295-3.092C135.291,70.615,135.279,69.412,132.996,69.412z"/>
	<path d="M137.475,76.249v-0.517l0.405-0.079c0.135-0.022,0.157-0.124,0.157-0.202v-5.893c0-0.079-0.022-0.18-0.157-0.202
		l-0.405-0.079v-0.518h5.455v0.652h-4.127v2.676h4.025v0.641h-4.025v2.868h4.127v0.652H137.475z"/>
</g>
<g>
	<path d="M115.428,181.718V181.2l0.405-0.078c0.135-0.022,0.158-0.124,0.158-0.203v-5.825c0-0.18-0.034-0.304-0.236-0.304
		c-0.146,0-0.203,0.102-0.259,0.214l-2.092,4.184h-1l-2.092-4.184c-0.056-0.112-0.112-0.214-0.259-0.214
		c-0.202,0-0.236,0.124-0.236,0.304v5.825c0,0.079,0.023,0.181,0.158,0.203l0.405,0.078v0.518h-1.822V181.2l0.405-0.078
		c0.135-0.022,0.158-0.124,0.158-0.203v-5.893c0-0.078-0.023-0.18-0.158-0.202l-0.405-0.079v-0.517h2.159l2.081,4.183
		c0.034,0.057,0.056,0.091,0.112,0.091s0.079-0.034,0.101-0.079l2.092-4.194h2.215v0.517l-0.405,0.079
		c-0.135,0.022-0.157,0.124-0.157,0.202v5.893c0,0.079,0.022,0.181,0.157,0.203l0.405,0.078v0.518H115.428z"/>
	<path d="M125.632,181.718V181.2l0.405-0.078c0.135-0.022,0.157-0.124,0.157-0.203v-5.825c0-0.18-0.034-0.304-0.236-0.304
		c-0.146,0-0.203,0.102-0.259,0.214l-2.092,4.184h-1l-2.092-4.184c-0.056-0.112-0.112-0.214-0.259-0.214
		c-0.202,0-0.236,0.124-0.236,0.304v5.825c0,0.079,0.022,0.181,0.157,0.203l0.405,0.078v0.518h-1.822V181.2l0.405-0.078
		c0.135-0.022,0.158-0.124,0.158-0.203v-5.893c0-0.078-0.022-0.18-0.158-0.202l-0.405-0.079v-0.517h2.159l2.081,4.183
		c0.034,0.057,0.056,0.091,0.112,0.091s0.079-0.034,0.101-0.079l2.092-4.194h2.216v0.517l-0.405,0.079
		c-0.135,0.022-0.157,0.124-0.157,0.202v5.893c0,0.079,0.022,0.181,0.157,0.203l0.405,0.078v0.518H125.632z"/>
	<path d="M128.965,181.718V181.2l0.404-0.078c0.135-0.022,0.158-0.124,0.158-0.203v-5.893c0-0.078-0.023-0.18-0.158-0.202
		l-0.404-0.079v-0.517h1.889v0.517l-0.404,0.079c-0.135,0.022-0.158,0.124-0.158,0.202v6.028h3.734v0.663H128.965z"/>
	<path d="M141.922,174.229v0.517l-0.326,0.09c-0.18,0.046-0.236,0.091-0.303,0.271l-2.34,6.612h-1.507l-2.339-6.612
		c-0.068-0.18-0.113-0.225-0.304-0.271l-0.337-0.09v-0.517h1.911v0.517l-0.349,0.079c-0.135,0.033-0.157,0.124-0.123,0.236
		l1.956,5.701c0.079,0.225,0.135,0.349,0.36,0.349c0.225,0,0.281-0.124,0.359-0.349l1.912-5.713
		c0.033-0.101,0.011-0.191-0.124-0.225l-0.349-0.079v-0.517H141.922z"/>
</g>
<g>
	<path fill="#FFFFFF" d="M35.186,132.681c-1.078-0.88-2.436-1.431-3.936-1.431c-3.452,0-6.25,2.798-6.25,6.25
		c0,1.5,0.551,2.857,1.431,3.936L35.186,132.681z"/>
	<path fill="#FFFFFF" d="M27.314,142.319c1.078,0.88,2.436,1.431,3.936,1.431c3.452,0,6.25-2.798,6.25-6.25
		c0-1.5-0.551-2.857-1.431-3.936L27.314,142.319z"/>
</g>
<g>
	<path fill="#FFFFFF" d="M218.01,132.188c-1.188,0.724-2.158,1.823-2.656,3.237c-1.145,3.257,0.566,6.825,3.822,7.971
		c1.415,0.498,2.879,0.428,4.188-0.045L218.01,132.188z"/>
	<path fill="#FFFFFF" d="M224.49,142.812c1.188-0.724,2.158-1.823,2.656-3.237c1.145-3.257-0.566-6.825-3.822-7.971
		c-1.416-0.498-2.879-0.428-4.188,0.045L224.49,142.812z"/>
</g>
<path fill="#222222" d="M166.58,136.598l-0.001-0.003c-0.163-0.393-0.352-0.771-0.54-1.148L148.57,98.235h-0.006
	c-1.056-3.17-3.748-5.58-7.067-6.269c0.017-0.076,0.051-0.145,0.064-0.221c0.447-2.524-1.557-4.574-4.479-4.574
	c-2.918,0-5.649,2.049-6.1,4.574c-0.246,1.393,0.271,2.624,1.257,3.464c-1.348,1.639-2.157,3.734-2.157,6.02v3.646h-1.435
	c0-2.016-1.632-3.649-3.646-3.649c-2.014,0-3.647,1.634-3.647,3.649h-1.436v-3.646c0-2.286-0.811-4.381-2.156-6.02
	c0.986-0.84,1.503-2.072,1.256-3.464c-0.449-2.524-3.18-4.574-6.098-4.574c-2.922,0-4.927,2.049-4.479,4.574
	c0.012,0.076,0.047,0.145,0.065,0.221c-3.322,0.689-6.012,3.099-7.067,6.269h-0.007l-17.469,37.211
	c-0.188,0.378-0.376,0.756-0.54,1.148l0,0.003c-0.928,2.234-1.445,4.687-1.445,7.258c0,10.48,8.493,18.974,18.969,18.974
	c10.478,0,18.972-8.493,18.972-18.974v-5.823c0.972-1.228,2.869-2.07,5.083-2.07c2.214,0,4.109,0.843,5.081,2.07v5.823
	c0,10.48,8.496,18.974,18.972,18.974c10.477,0,18.971-8.493,18.971-18.974C168.025,141.284,167.508,138.832,166.58,136.598z
	 M100.948,159.243c-8.482,0-15.384-6.906-15.384-15.388s6.901-15.384,15.384-15.384c8.483,0,15.387,6.902,15.387,15.384
	S109.431,159.243,100.948,159.243z M121.355,117.581c0-2.015,1.633-3.649,3.647-3.649c2.015,0,3.646,1.634,3.646,3.649H121.355z
	 M148.934,159.243c-8.48,0-15.382-6.906-15.382-15.388s6.901-15.384,15.382-15.384c8.483,0,15.386,6.902,15.386,15.384
	S157.417,159.243,148.934,159.243z M88.393,145.026c-0.081,0.108-0.067,0.257,0.031,0.35c0.049,0.051,0.116,0.071,0.182,0.071
	c0.059,0,0.118-0.013,0.165-0.052c2.812-2.266,6.224-3.671,9.789-4.098c-0.735,0.913-1.195,2.087-1.195,3.385
	c0,2.872,2.169,5.2,4.843,5.2s4.842-2.328,4.842-5.2c0-1-0.276-1.923-0.731-2.716c2.354,0.701,4.564,1.84,6.535,3.429
	c0.104,0.081,0.254,0.075,0.351-0.02c0.097-0.093,0.11-0.241,0.029-0.35c-2.909-3.911-7.553-6.249-12.421-6.249
	S91.3,141.115,88.393,145.026z M102.967,141.681c1.083,0,1.96,0.874,1.96,1.956c0,1.084-0.877,1.96-1.96,1.96
	c-1.079,0-1.958-0.876-1.958-1.96C101.009,142.555,101.888,141.681,102.967,141.681z M136.77,145.026
	c-0.081,0.108-0.067,0.257,0.03,0.35c0.051,0.051,0.117,0.071,0.183,0.071c0.059,0,0.117-0.013,0.165-0.052
	c2.812-2.266,6.224-3.671,9.79-4.098c-0.734,0.913-1.197,2.087-1.197,3.385c0,2.872,2.172,5.2,4.844,5.2
	c2.674,0,4.842-2.328,4.842-5.2c0-1-0.273-1.923-0.731-2.716c2.356,0.701,4.566,1.84,6.536,3.429c0.103,0.081,0.254,0.075,0.35-0.02
	c0.098-0.093,0.113-0.241,0.03-0.35c-2.909-3.911-7.555-6.249-12.421-6.249C144.32,138.777,139.677,141.115,136.77,145.026z
	 M151.344,141.681c1.082,0,1.96,0.874,1.96,1.956c0,1.084-0.878,1.96-1.96,1.96c-1.079,0-1.957-0.876-1.957-1.96
	C149.387,142.555,150.265,141.681,151.344,141.681z"/>
</svg>
